<?xml version="1.0" encoding="UTF-8"?>
<svg id="Layer_1" data-name="Layer 1" xmlns="http://www.w3.org/2000/svg" viewBox="0 0 62 62">
  <defs>
    <style>
      .cls-1 {
        fill: #fff;
        stroke-width: 0px;
      }
    </style>
  </defs>
  <path class="cls-1" d="M59.77,28.12L33.88,2.23c-1.59-1.59-4.17-1.59-5.75,0L2.23,28.12c-1.59,1.59-1.59,4.17,0,5.75l25.89,25.89c1.59,1.59,4.17,1.59,5.75,0l25.89-25.89c1.59-1.59,1.59-4.17,0-5.75ZM12.29,30.76c-1.24-1.24-1.24-3.22,0-4.46s3.22-1.24,4.46,0c1.24,1.24,1.24,3.22,0,4.46-1.24,1.24-3.22,1.24-4.46,0ZM30.24,47.97l-13.74-13.74,3.71-3.71,13.74,13.74-3.71,3.71ZM45.34,32.86l-7.06-7.06c-4.21-4.21-9.04,1.11-5.08,5.08l7.06,7.06-3.71,3.71-13.74-13.74,3.71-3.71,2.1,2.1c-1.49-4.95,5.32-12.26,12.01-5.57l8.42,8.42-3.71,3.71Z"/>
</svg>