<?xml version="1.0" encoding="UTF-8"?>
<svg id="Layer_1" data-name="Layer 1" xmlns="http://www.w3.org/2000/svg" viewBox="0 0 62 62">
  <defs>
    <style>
      .cls-1 {
        fill: #fff;
        stroke-width: 0px;
      }
    </style>
  </defs>
  <polygon class="cls-1" points="33.28 23.65 30.97 12.07 25.18 17.86 12.31 4.99 5.35 11.95 18.22 24.82 12.43 30.61 24.01 32.91 35.58 35.22 33.28 23.65"/>
  <path class="cls-1" d="M31,3.61c-3.96,0-7.72.86-11.12,2.38l3.57,3.57c2.38-.84,4.89-1.39,7.55-1.39,12.59,0,22.83,10.24,22.83,22.83,0,12.59-10.24,22.84-22.83,22.84-12.59,0-22.83-10.24-22.83-22.84,0-2.86.59-5.58,1.55-8.11l-3.5-3.5c-1.66,3.53-2.62,7.45-2.62,11.61,0,15.11,12.29,27.39,27.39,27.39,15.1,0,27.39-12.29,27.39-27.39,0-15.1-12.29-27.39-27.39-27.39"/>
</svg>